<svg xmlns="http://www.w3.org/2000/svg" viewBox="0 0 283.32 98.11"><g id="Capa_2" data-name="Capa 2"><g id="Capa_1-2" data-name="Capa 1"><g id="MBtwdk"><path d="M182.93,46.29c0,28.88-22.52,52-50.44,51.81-25.9-.16-45.41-20.18-45.32-46.52C87.26,23.14,109.74.09,137.46,0,163.34-.08,182.94,19.89,182.93,46.29ZM156.32,26.61c-.67-3.4-1-9-2.94-14-3-7.88-10.48-9.78-16.95-4.51a34,34,0,0,0-8,9.42,106,106,0,0,0-13.88,57.92,31.28,31.28,0,0,0,3.51,12.3c2.81,5.51,9,7,14.05,3.42a31.91,31.91,0,0,0,8.59-8.82C151,66,154.84,47.7,156.32,26.61Z"/><path d="M283.32,46.38c0,28.8-22.66,52-50.5,51.72-26-.26-45.18-20-45.08-46.61C187.83,22.89,210.15,0,238,0,263.86,0,283.32,19.89,283.32,46.38Zm-26.44-20.2c-.63-3.08-1.18-8.09-2.73-12.78-2.82-8.54-10.94-10.82-17.79-5A35.53,35.53,0,0,0,228.49,18a109.56,109.56,0,0,0-13.82,53.05,42.11,42.11,0,0,0,2.89,15c2.73,7.13,9.93,9.15,15.88,4.43A39.17,39.17,0,0,0,243,79.23C251.89,63.4,255.52,46,256.88,26.18Z"/><path d="M58.82,1.65c8.83,0,17.67.09,26.5,0,3.46-.05,4.5.93,3.13,4.37-2.09,5.25-4,10.59-5.7,16-1,3.24-3.34,3.18-5.91,3.18-15.67,0-31.34,0-47,0-1.9,0-4.85,0-5.48,1.08-1.81,3.09-2.68,6.74-3.92,10.17a10.09,10.09,0,0,0,3.1.48c8-1.29,15.91-3.38,23.94-3.87S63.21,35.55,70,40.1C89.28,53,87.36,79.84,66.27,91.38,50.68,99.91,34.56,99.3,18.5,93c-5.84-2.29-11.29-5.65-16.71-8.86A4.87,4.87,0,0,1,.08,79.81c2-6.51,4.46-12.89,6.76-19.31,1-2.79,2.05-2.41,3.6-.28,4.62,6.32,8.93,13,14.22,18.67C29,83.57,34,88.09,39.63,91,50.34,96.54,60.42,90,60.93,78c.53-12.34-5.82-21-17.69-24.56-9.67-2.87-19.44-2.66-29.18-.84-4.09.76-4.23-.47-3-3.72C16.27,34.54,21.53,20.16,26.53,5.7c1.16-3.37,3-4.17,6.29-4.11C41.48,1.77,50.15,1.65,58.82,1.65Z"/></g></g></g></svg>