<svg width="892" height="275" viewBox="0 0 892 275" fill="none" xmlns="http://www.w3.org/2000/svg">
<path d="M70 159.042L76.5657 149.959C79.1328 152.691 82.2429 154.929 85.896 156.673C89.5491 158.417 93.5643 159.289 97.9414 159.289C102.45 159.289 105.824 158.384 108.062 156.574C110.332 154.731 111.468 152.559 111.468 150.058C111.468 148.544 111.007 147.227 110.086 146.108C109.197 144.989 107.996 144.084 106.482 143.393C104.968 142.669 103.224 142.027 101.249 141.468C99.3073 140.908 97.2339 140.365 95.0288 139.839C92.8567 139.279 90.6846 138.687 88.5124 138.062C86.3403 137.403 84.2669 136.581 82.2923 135.593C80.3505 134.573 78.6227 133.405 77.1088 132.088C75.5949 130.739 74.3772 129.028 73.4557 126.954C72.5671 124.881 72.1228 122.511 72.1228 119.845C72.1228 114.218 74.3936 109.528 78.9353 105.776C83.51 102.024 89.4339 100.148 96.7073 100.148C107.107 100.148 115.532 103.275 121.983 109.528L115.22 118.315C112.686 115.781 109.707 113.872 106.284 112.588C102.895 111.272 99.3731 110.614 95.72 110.614C92.2643 110.614 89.4833 111.387 87.377 112.934C85.3036 114.448 84.2669 116.472 84.2669 119.006C84.2669 120.323 84.7112 121.491 85.5998 122.511C86.4884 123.498 87.6897 124.321 89.2036 124.979C90.7175 125.605 92.4618 126.197 94.4364 126.757C96.4111 127.283 98.468 127.826 100.607 128.386C102.779 128.945 104.951 129.571 107.124 130.262C109.296 130.92 111.369 131.776 113.344 132.829C115.318 133.882 117.063 135.1 118.577 136.482C120.091 137.864 121.292 139.625 122.18 141.764C123.069 143.87 123.513 146.273 123.513 148.972C123.513 151.835 122.987 154.501 121.934 156.969C120.913 159.437 119.367 161.642 117.293 163.584C115.253 165.526 112.521 167.056 109.098 168.175C105.708 169.261 101.808 169.804 97.3984 169.804C85.8466 169.804 76.7138 166.217 70 159.042Z" fill="black"/>
<path d="M146.716 149.07C144.905 144.693 144 139.97 144 134.902C144 129.834 144.905 125.111 146.716 120.734C148.559 116.357 151.06 112.671 154.219 109.676C157.379 106.648 161.131 104.278 165.475 102.567C169.819 100.856 174.46 100 179.396 100C191.145 100 200.179 105.068 206.498 115.205L196.378 120.339C194.7 117.443 192.33 115.09 189.269 113.28C186.209 111.437 182.918 110.515 179.396 110.515C172.715 110.515 167.17 112.819 162.76 117.426C158.35 122.001 156.145 127.826 156.145 134.902C156.145 141.978 158.35 147.82 162.76 152.427C167.17 157.002 172.715 159.289 179.396 159.289C182.951 159.289 186.242 158.384 189.269 156.574C192.33 154.764 194.7 152.394 196.378 149.465L206.498 154.599C200.081 164.736 191.047 169.804 179.396 169.804C174.46 169.804 169.819 168.949 165.475 167.237C161.131 165.526 157.379 163.173 154.219 160.178C151.06 157.15 148.559 153.448 146.716 149.07Z" fill="black"/>
<path d="M228.565 168.57V101.135H258.185C264.8 101.135 270.132 103.094 274.18 107.01C278.228 110.926 280.252 116.011 280.252 122.264C280.252 125.16 279.808 127.81 278.919 130.212C278.03 132.615 276.813 134.622 275.266 136.235C273.752 137.815 272.057 139.098 270.181 140.086C268.338 141.073 266.364 141.731 264.257 142.06L280.746 168.57H267.12L252.162 143.393H240.413V168.57H228.565ZM240.413 132.977H256.605C259.962 132.977 262.71 131.99 264.85 130.015C267.022 128.04 268.108 125.457 268.108 122.264C268.108 119.072 267.022 116.488 264.85 114.514C262.71 112.539 259.962 111.552 256.605 111.552H240.413V132.977Z" fill="black"/>
<path d="M297.629 168.57L324.139 101.135H338.899L365.36 168.57H351.932L346.946 155.636H316.043L311.057 168.57H297.629ZM319.35 145.22H343.639L331.494 113.082L319.35 145.22Z" fill="black"/>
<path d="M374.394 111.552V101.135H427.068V111.552H406.68V168.57H394.832V111.552H374.394Z" fill="black"/>
<path d="M446.864 149.07C445.054 144.693 444.149 139.97 444.149 134.902C444.149 129.834 445.054 125.111 446.864 120.734C448.707 116.357 451.208 112.671 454.368 109.676C457.527 106.648 461.279 104.278 465.623 102.567C469.967 100.856 474.608 100 479.545 100C491.294 100 500.328 105.068 506.647 115.205L496.527 120.339C494.848 117.443 492.479 115.09 489.418 113.28C486.357 111.437 483.066 110.515 479.545 110.515C472.864 110.515 467.318 112.819 462.908 117.426C458.498 122.001 456.293 127.826 456.293 134.902C456.293 141.978 458.498 147.82 462.908 152.427C467.318 157.002 472.864 159.289 479.545 159.289C483.099 159.289 486.39 158.384 489.418 156.574C492.479 154.764 494.848 152.394 496.527 149.465L506.647 154.599C500.229 164.736 491.195 169.804 479.545 169.804C474.608 169.804 469.967 168.949 465.623 167.237C461.279 165.526 457.527 163.173 454.368 160.178C451.208 157.15 448.707 153.448 446.864 149.07Z" fill="black"/>
<path d="M528.714 168.57V101.135H540.562V128.731H575.661V101.135H587.46V168.57H575.661V139.148H540.562V168.57H528.714Z" fill="black"/>
<path d="M614.414 168.57V101.135H644.034C650.846 101.135 656.227 103.176 660.177 107.257C664.126 111.305 666.101 116.307 666.101 122.264C666.101 128.221 664.109 133.24 660.127 137.321C656.178 141.369 650.813 143.393 644.034 143.393H626.262V168.57H614.414ZM626.262 132.977H642.454C645.811 132.977 648.559 131.99 650.698 130.015C652.87 128.04 653.956 125.457 653.956 122.264C653.956 119.072 652.87 116.488 650.698 114.514C648.559 112.539 645.811 111.552 642.454 111.552H626.262V132.977Z" fill="black"/>
<path d="M673.9 168.57L700.41 101.135H715.171L741.631 168.57H728.204L723.218 155.636H692.314L687.328 168.57H673.9ZM695.622 145.22H719.91L707.766 113.082L695.622 145.22Z" fill="black"/>
<path d="M761.625 168.57V101.135H786.703C793.614 101.135 799.752 102.567 805.117 105.43C810.481 108.294 814.628 112.292 817.557 117.426C820.519 122.528 822 128.353 822 134.902C822 141.451 820.519 147.277 817.557 152.378C814.628 157.479 810.481 161.461 805.117 164.325C799.752 167.155 793.614 168.57 786.703 168.57H761.625ZM773.473 158.154H786.703C791.442 158.154 795.589 157.101 799.143 154.994C802.698 152.855 805.364 150.041 807.141 146.553C808.951 143.064 809.856 139.181 809.856 134.902C809.856 128.122 807.815 122.544 803.734 118.167C799.653 113.757 793.976 111.552 786.703 111.552H773.473V158.154Z" fill="black"/>
</svg>
